<?xml version="1.0" encoding="UTF-8"?>
<svg id="Capa_1" xmlns="http://www.w3.org/2000/svg" version="1.1" viewBox="0 0 24 24">
  <!-- Generator: Adobe Illustrator 29.1.0, SVG Export Plug-In . SVG Version: 2.1.0 Build 142)  -->
  <defs>
    <style>
      .st0 {
        fill: #667085;
      }
    </style>
  </defs>
  <path class="st0" d="M12,22.8c-5.9,0-10.8-4.8-10.8-10.8S6.1,1.2,12,1.2s10.8,4.8,10.8,10.8-4.8,10.8-10.8,10.8ZM12,2.8C6.9,2.8,2.8,6.9,2.8,12s4.2,9.2,9.2,9.2,9.2-4.1,9.2-9.2S17.1,2.8,12,2.8Z"/>
  <path class="st0" d="M17.3,10.7c.2-1.4-.9-2.2-2.4-2.7l.5-1.9-1.2-.3-.5,1.9c-.3,0-.6-.1-1-.2l.5-1.9-1.2-.3-.5,1.9c-.3,0-.5-.1-.8-.2l-1.6-.4-.3,1.3s.9.2.9.2c.5.1.6.4.5.7l-1.3,5.3c0,.1-.2.4-.5.3,0,0-.9-.2-.9-.2l-.6,1.3,1.5.4c.3,0,.6.1.8.2l-.5,2,1.2.3.5-1.9c.3,0,.6.2.9.2l-.5,1.9,1.2.3.5-2c2,.4,3.5.2,4.2-1.6.5-1.5,0-2.3-1.1-2.9.8-.2,1.4-.7,1.5-1.7ZM14.6,14.4c-.4,1.5-2.8.7-3.6.5l.6-2.6c.8.2,3.4.6,3,2.1ZM15,10.6c-.3,1.3-2.4.7-3,.5l.6-2.3c.7.2,2.8.5,2.5,1.9Z"/>
</svg>