<?xml version="1.0" encoding="UTF-8"?>
<svg id="Layer_1" xmlns="http://www.w3.org/2000/svg" version="1.1" viewBox="0 0 24 24">
  <!-- Generator: Adobe Illustrator 29.1.0, SVG Export Plug-In . SVG Version: 2.1.0 Build 142)  -->
  <defs>
    <style>
      .st0 {
        fill: #667085;
      }
    </style>
  </defs>
  <path class="st0" d="M13.4,17.4h-2.5c-1.6,0-3-1.4-3-3.1s.3-.8.8-.8.8.3.8.8c0,.9.7,1.6,1.5,1.6h2.5c.7,0,1.2-.6,1.2-1.3s-.3-1-.8-1.2l-4-1.4c-.8-.3-1.8-.9-1.8-2.6s1.2-2.8,2.7-2.8h2.5c1.6,0,3,1.4,3,3.1s-.3.8-.8.8-.8-.3-.8-.8c0-.9-.7-1.6-1.5-1.6h-2.5c-.7,0-1.2.6-1.2,1.3s.3,1,.8,1.2l4,1.4c.8.3,1.8.8,1.8,2.6,0,1.5-1.2,2.8-2.7,2.8Z"/>
  <path class="st0" d="M12,18.8c-.4,0-.8-.3-.8-.8V6c0-.4.3-.8.8-.8s.8.3.8.8v12c0,.4-.3.8-.8.8Z"/>
  <path class="st0" d="M12,22.8c-5.9,0-10.8-4.8-10.8-10.8S6.1,1.2,12,1.2s10.8,4.8,10.8,10.8-4.8,10.8-10.8,10.8ZM12,2.8C6.9,2.8,2.8,6.9,2.8,12s4.2,9.2,9.2,9.2,9.2-4.1,9.2-9.2S17.1,2.8,12,2.8Z"/>
</svg>