<?xml version="1.0" encoding="UTF-8"?>
<svg id="Layer_1" xmlns="http://www.w3.org/2000/svg" version="1.1" viewBox="0 0 512 512">
  <!-- Generator: Adobe Illustrator 29.1.0, SVG Export Plug-In . SVG Version: 2.1.0 Build 142)  -->
  <defs>
    <style>
      .st0 {
        fill: #4ab0e4;
      }
    </style>
  </defs>
  <path class="st0" d="M184.9,85.7s-37,0-68.2,33.1c0,0-101.4,121.8-112.1,228.1,0,0-12.7,66.3,49.7,79,0,0,58.5,8.8,82.9-57.5,0,0,37-127.7,49.7-149.1,0,0,6.8-13.6,16.6-13.6,0,0,12.7,0,16.6,17.5,0,0,17.5,72.1,45.8,79,0,0,46.8,12.7,58.5-43.9,0,0,4.9-38,37-35.1,0,0,20.5,0,25.3,52.6,0,0,3.9,52.6,45.8,48.7,0,0,59.5-3.9,33.1-87.7,0,0-29.2-122.8-75.1-127.7,0,0-22.4-1.9-35.1,28.3,0,0-33.1,70.2-62.4,66.3,0,0-35.1,0-45.8-52.6,0,1-12.7-65.3-62.4-65.3h.1Z"/>
  <circle class="st0" cx="495.8" cy="303.1" r="12.7"/>
</svg>